<svg width="1440" height="1024" viewBox="0 0 1440 1024" fill="none" xmlns="http://www.w3.org/2000/svg">
<g clip-path="url(#clip0_14_48)">
<rect width="1440" height="1024" fill="#EAFBF9"/>
<ellipse cx="972" cy="997" rx="470" ry="463" fill="#8AE6DC" fill-opacity="0.3"/>
<ellipse cx="1418" cy="61" rx="470" ry="463" fill="#8AE6DC" fill-opacity="0.4"/>
<ellipse cx="293" cy="996.561" rx="150" ry="147.561" fill="#8AE6DC" fill-opacity="0.25"/>
<ellipse cx="425" cy="-0.439026" rx="150" ry="147.561" fill="#8AE6DC" fill-opacity="0.5"/>
<ellipse cx="738" cy="317.561" rx="150" ry="147.561" fill="#8AE6DC" fill-opacity="0.3"/>
<path d="M121.387 1157.54C119.184 1155.13 118.2 1147.92 118.2 1134.22V1114.4L108.92 1110.57C88.2983 1102.05 79.9243 1089.35 79.9243 1066.63C79.9243 1054.69 80.9244 1050.94 85.8912 1044.28C92.2818 1035.73 92.2903 1035.75 81.4669 1024.95C66.4735 1009.99 62.8798 973.622 75.2203 961.675C77.8054 959.177 79.9158 956.171 79.9158 954.992C79.9158 953.82 75.1102 947.237 69.2365 940.361C50.9885 919.01 48.7679 913.66 48.6746 890.929C48.6068 872.622 49.1747 869.971 55.2772 860.335C58.9556 854.531 65.0072 846.838 68.7365 843.246L75.5 836.71L66.999 827.452C62.3289 822.365 55.8111 812.961 52.531 806.556C47.2422 796.25 46.5472 792.141 46.4201 770.651C46.293 749.608 46.988 744.944 51.6665 735.556C54.633 729.597 60.1083 722.059 63.846 718.806C70.4316 713.071 72.7878 707.344 68.5754 707.344C67.4397 707.344 60.7609 702.202 53.7261 695.905C34.2237 678.454 24.1376 648.268 32.0963 631.133L35.6391 623.502L27.0363 617.151C18.5946 610.922 13.9499 604.301 7.1355 588.792L3.71981 581.022L-8.04438 584.445C-19.317 587.721 -20.3171 587.675 -32.0135 583.42C-39.6585 580.629 -49.1004 579.018 -57.2963 579.103C-66.5009 579.196 -73.7052 577.77 -81.5791 574.301C-87.7409 571.588 -97.42 569.121 -103.082 568.82C-109.989 568.45 -117.677 565.876 -126.373 561.02C-135.628 555.848 -142.163 553.743 -149.206 553.674C-160.343 553.558 -178.464 545.55 -187.965 536.523L-194 530.796L-181.1 528.168C-165.378 524.969 -123.559 505.937 -95.2588 489.103C-83.7743 482.273 -59.7628 467.928 -41.8961 457.237C-2.03515 433.38 0.965231 431.977 19.1201 428.725C61.1423 421.209 94.2651 438.768 99.6556 471.412C101.724 483.992 97.8418 495.015 87.7134 505.313C83.4248 509.668 79.9158 514.093 79.9158 515.149C79.9158 516.197 83.2553 519.612 87.332 522.733C93.3243 527.32 96.2908 528.175 102.834 527.212C115.081 525.408 116.988 522.425 117.192 504.712C117.327 492.779 116.209 486.798 112.564 480.084C102.605 461.708 108.309 442.137 126.108 433.673C150.196 422.219 176.182 433.642 179.072 456.96C179.878 463.488 178.589 468.861 174.029 477.918C168.647 488.617 167.986 492.325 168.571 508.512L169.249 526.934L180.149 527.574C190.167 528.16 205.211 523.743 205.211 520.221C205.211 519.488 202.753 515.95 199.761 512.358C186.395 496.341 185.243 470.341 197.193 454.162C212.017 434.082 232.037 427.53 261.549 433.087C288.637 438.198 299.986 444.364 365.706 489.681C381.437 500.534 407.881 516.497 424.468 525.154C453.175 540.131 455.217 540.855 466.812 540.069C478.017 539.314 479 539.614 479 543.784C479 549.982 464.235 565.198 453.319 570.262C448.403 572.543 440.283 574.409 435.283 574.409C430.282 574.409 420.255 576.883 412.992 579.905C402.253 584.376 397.863 585.131 389.353 583.975C381.945 582.965 377.428 583.435 373.8 585.601C367.986 589.062 353.815 591.606 335.143 592.531C296.706 594.442 283.814 595.421 281.712 596.601C280.433 597.325 277.924 601.095 276.135 604.987C272.525 612.834 263.091 622.423 253.353 628.127C247.488 631.565 246.971 632.96 246.971 645.285C246.971 664.14 239.402 678.639 220.044 696.868L204.618 711.406L214.187 721.797C228.435 737.267 232.935 747.858 232.994 766.026C233.088 794.384 225.417 810.356 203.542 827.368L192.54 835.924L199.66 842.853C216.518 859.249 217.976 862.686 217.832 885.657C217.662 911.61 213.89 919.372 193.667 935.367C180.708 945.611 176.233 952.124 182.132 952.124C183.48 952.124 187.243 957.582 190.506 964.257C200.779 985.3 196.091 1007.18 177.123 1026.78C172.148 1031.92 168.079 1036.64 168.079 1037.29C168.079 1037.93 170.69 1041.96 173.885 1046.23C178.581 1052.52 179.683 1056.58 179.683 1067.52C179.683 1091.32 163.376 1110.39 143.025 1110.39H136.296L134.719 1134.04C133.27 1155.75 131.617 1160.88 126.023 1161C125.218 1161.02 123.133 1159.46 121.379 1157.54H121.387ZM128.642 1102.87C128.642 1072.06 127.82 1055.52 126.278 1055.52C124.727 1055.52 124.015 1072.24 124.218 1104.03C124.396 1131.59 125.422 1152.04 126.591 1151.38C127.718 1150.75 128.642 1128.92 128.642 1102.87ZM118.311 1077.83C118.031 1059.18 114.971 1055.43 108.843 1066.21C104.453 1073.94 105.767 1088.12 111.861 1098.75L115.505 1105.11L117.031 1099.84C117.87 1096.93 118.446 1087.03 118.311 1077.83ZM144.805 1097.86C148.102 1092.25 147.84 1071.71 144.424 1068.6C139.237 1063.88 138.271 1066.04 137.516 1084.01C136.974 1097.05 137.533 1101.95 139.584 1101.95C141.135 1101.94 143.483 1100.11 144.805 1097.86ZM163.698 1087.86C178.606 1065.93 172.919 1049.09 143.5 1028.09L129.617 1018.18C124.421 1014.46 117.251 1007.6 113.683 1002.92C107.962 995.413 107.318 992.954 108.191 981.986L109.174 969.56L99.5285 964.002C94.2143 960.95 88.1881 958.453 86.12 958.453C76.2289 958.453 71.2198 985.624 78.2801 1000.98C85.0436 1015.71 106.351 1032.55 128.651 1040.79C140.296 1045.1 153.654 1058.24 155.51 1067.25C157.044 1074.69 156.002 1085.37 152.73 1095.61C151.221 1100.34 151.442 1100.59 154.9 1098.01C157.019 1096.43 160.977 1091.87 163.698 1087.86V1087.86ZM96.918 1085.25C95.0703 1071.08 97.3757 1061.84 104.487 1054.86C111.471 1048.01 110.53 1043.57 101.664 1041.55C96.4942 1040.37 94.3583 1041.21 89.8069 1046.23C84.8826 1051.65 84.3656 1053.96 85.2386 1066.4C85.9166 1076.01 87.8575 1082.83 91.3834 1088.03C94.2227 1092.2 96.9265 1095.61 97.4011 1095.61C97.8757 1095.61 97.6554 1090.95 96.918 1085.25ZM166.13 1018.07C178.182 1008.19 184.234 996.369 184.234 982.718C184.234 962.492 170.52 945.287 141.356 928.915C124.523 919.465 108.326 906.476 104.105 899.053C98.9013 889.912 99.9184 875.821 106.411 867.126C112.886 858.455 113.056 858.701 92.0784 846.761C77.9495 838.722 76.9578 839.061 67.3126 855.171C58.0656 870.618 56.9384 886.628 63.7274 905.837C68.1771 918.424 71.3724 923.057 83.2553 934.133C91.875 942.165 103.215 950.02 112.089 954.09C140.686 967.217 154.51 983.936 146.255 995.398C144.17 998.288 142.568 1004.95 142.568 1010.71C142.568 1028.05 150.815 1030.62 166.13 1018.07ZM133.541 1004.35C134.041 986.95 131.804 979.557 126.04 979.557C122.904 979.557 123.582 1007.87 126.795 1010.78C131.617 1015.18 133.279 1013.59 133.541 1004.35ZM118.734 984.306C117.81 980.783 117.683 980.783 115.997 984.306C115.022 986.333 115.022 989.655 115.997 991.69C117.683 995.205 117.81 995.205 118.734 991.69C119.268 989.655 119.268 986.333 118.734 984.306ZM179.301 933.655C195.6 924.645 205.576 907.941 207.059 887.214C208.051 873.285 207.5 870.687 200.982 858.655C197.041 851.371 191.421 843.447 188.497 841.042C180.844 834.76 147.484 814.125 137.932 809.77C133.465 807.727 123.269 802.131 115.285 797.329C102.8 789.813 100.105 787.015 96.1382 777.426C88.6034 759.204 90.1714 746.625 101.393 735.409C107.801 729.004 105.597 725.682 90.29 718.667L77.1104 712.624L68.9738 721.064C56.3281 734.168 52.0818 745.152 52.0818 764.723C52.0818 779.238 53.0904 783.578 59.1505 795.124C67.4143 810.872 83.1027 825.687 102.317 835.885C131.414 851.325 154.925 866.625 159.078 872.83C161.477 876.399 163.435 882.92 163.443 887.322C163.452 895.731 157.027 909.352 150.857 914.015C144.712 918.655 146.746 924.12 157.07 930.703C168.851 938.211 170.639 938.45 179.301 933.655ZM137.949 901.482C138.661 872.954 138.533 872.329 130.965 868.776L124.006 865.5V887.63C124.006 907.694 124.481 910.161 129.1 914.069C131.897 916.443 134.957 917.669 135.897 916.79C136.838 915.911 137.762 909.02 137.949 901.482ZM152.73 894.768C153.188 883.236 148.441 884.578 147.653 896.201C147.094 904.349 147.56 906.191 149.687 904.264C151.213 902.9 152.578 898.622 152.73 894.768ZM117.548 882.103C114.183 879.043 111.555 887.699 113.7 894.775C115.378 900.318 115.446 900.279 117.658 892.34C119.167 886.952 119.124 883.537 117.548 882.103ZM191.218 813.955C210.585 801.029 219.789 783.87 220.111 760.098C220.239 750.463 218.942 743.911 215.763 738.069C211.399 730.067 191.642 709.456 188.336 709.456C187.455 709.456 180.03 705.725 171.843 701.17C163.494 696.522 144.873 689.391 129.456 684.936C98.4012 675.972 77.8224 665.704 67.5075 654.034C61.8966 647.683 60.2863 643.551 59.4811 633.461C58.4216 620.149 60.21 618.068 66.9057 624.797C76.2289 634.163 99.537 631.488 109.564 619.895C114.836 613.798 114.352 609.365 108.165 607.038C91.2224 600.655 71.0334 602.706 55.5992 612.364C36.0459 624.597 30.4689 645.185 41.428 664.687C51.7598 683.071 66.4735 693.045 116.598 715.653C158.79 734.685 166.367 739.14 172.877 748.713C181.819 761.864 176.199 782.252 159.917 795.726C150.857 803.226 150.001 806.517 155.908 811.211C161.35 815.536 173.131 821.109 177.055 821.209C178.801 821.255 185.175 817.994 191.218 813.963V813.955ZM76.9663 613.219C74.0846 610.606 77.8139 608.171 84.6961 608.171C88.4508 608.171 91.519 609.119 91.519 610.283C91.519 611.439 90.0442 612.395 88.2305 612.395C86.4251 612.395 83.4926 612.896 81.7296 613.512C79.9667 614.129 77.8224 613.998 76.9663 613.219ZM143.661 774.513C145.339 746.987 145.297 746.686 139.898 742.894C132.829 737.93 126.295 736.01 124.176 738.261C123.252 739.248 123.099 752.675 123.828 768.092C125.125 795.255 125.345 796.219 130.965 799.009C141.593 804.289 141.89 803.727 143.661 774.513ZM162.206 784.788C168.274 776.355 168.715 768.138 163.503 760.522C160.884 756.691 157.714 754.14 156.451 754.849C153.467 756.522 153.451 789.644 156.434 789.644C157.68 789.644 160.282 787.455 162.206 784.78V784.788ZM117.048 767.483C117.048 751.288 116.395 747.442 113.649 747.442C109.682 747.442 106.64 752.097 104.402 761.578C103.283 766.311 104.207 771.206 107.479 777.935C114.666 792.712 117.048 790.106 117.048 767.483ZM196.668 698.626C218.721 688.235 237.58 663.677 239.402 642.988C240.436 631.218 239.995 629.73 233.147 621.883C221.781 608.864 209.619 603.214 192.727 603.106C177.343 603.014 165.121 607.115 163.926 612.765C163.52 614.692 166.223 619.363 169.936 623.14C175.818 629.129 178.454 630.131 190.481 630.917C202.745 631.727 205.076 631.218 211.458 626.331C215.416 623.309 219.289 620.835 220.078 620.835C222.044 620.835 219.044 637.785 216.162 642.988C207.813 658.05 186.522 674.122 167.384 679.81C155.536 683.325 156.951 687.303 172.733 694.887C186.921 701.701 189.345 702.079 196.668 698.626ZM190.718 613.05C184.175 611.493 186.056 608.171 193.481 608.171C201.194 608.171 204.745 611.292 199.211 613.227C197.202 613.929 195.38 614.391 195.168 614.26C194.947 614.121 192.947 613.574 190.718 613.05ZM147.543 679.386C148.501 671.694 149.365 656.994 151.781 607.115C153.247 576.937 154.849 551.123 155.341 549.735C155.841 548.355 156.425 536.007 156.654 522.302L157.061 497.389L141.169 495.932C132.422 495.13 124.947 494.776 124.557 495.13C124.159 495.493 123.354 535.729 122.76 584.561C121.904 654.219 122.303 673.698 124.582 675.039C128.38 677.274 140.618 681.452 144.305 681.776C145.907 681.915 147.357 680.835 147.543 679.386ZM173.436 671.632C184.022 667.207 200.575 654.396 200.575 650.619C200.575 649.324 199.007 648.261 197.092 648.261C195.176 648.261 193.871 647.174 194.193 645.848C194.515 644.522 191.159 642.541 186.734 641.454C182.319 640.36 175.004 636.514 170.495 632.906L162.291 626.339L161.596 639.658C161.206 646.981 161.409 653.441 162.045 654.019C162.681 654.597 167.952 653.595 173.767 651.791C188.15 647.336 187.124 650.581 172.173 656.871C160.341 661.843 156.951 666.128 159.697 672.657C161.333 676.534 161.782 676.496 173.436 671.632ZM116.48 666.868C114.861 663.045 86.8828 648.261 81.2804 648.261C77.2545 648.261 77.5088 649.001 83.5265 654.712C97.7147 668.179 120.633 676.627 116.48 666.868ZM115.191 653.009C116.929 646.65 117.463 627.164 115.903 627.164C115.081 627.164 111.089 629.453 107.029 632.243C102.97 635.041 96.0704 638.641 91.7055 640.244L83.7638 643.166L97.5028 649.617C114.454 657.588 113.971 657.495 115.191 653.009ZM255.413 609.273C260.888 604.07 267.109 597.41 269.228 594.473C273.025 589.201 272.915 588.962 261.812 578.07C255.616 571.996 249.742 566.708 248.759 566.323C247.776 565.93 242.25 569.399 236.478 574.016C220.857 586.518 211.271 590.033 192.455 590.141C183.522 590.195 173.606 589.764 170.41 589.178C165.105 588.214 164.613 588.761 164.613 595.514C164.613 603.646 164.308 603.584 182.937 599.584C197.668 596.423 217.662 601.503 230.214 611.601C234.969 615.424 240.343 618.584 242.157 618.631C243.97 618.685 249.937 614.468 255.413 609.273ZM49.5476 609.458C51.0224 607.847 57.6419 604.401 64.2698 601.811C74.1524 597.942 78.9242 597.318 90.8664 598.335C98.8674 599.013 107.377 600.524 109.767 601.688C115.2 604.332 117.048 602.729 117.048 595.375V589.617L97.9012 589.671C83.2383 589.717 76.2628 588.684 68.0669 585.27C58.1334 581.123 42.7247 567.926 36.7579 558.461C34.3847 554.699 33.41 555.169 23.4172 564.928C17.4843 570.717 12.6362 576.683 12.6362 578.178C12.6362 584.036 22.2221 597.533 31.5369 604.779C42.1908 613.073 45.4708 613.929 49.5476 609.458ZM308.275 585.786C313.844 583.844 312.75 581.531 303.919 576.567C299.494 574.085 291.061 565.46 285.179 557.405C275.61 544.324 273.669 542.759 266.99 542.759C250.709 542.759 249.912 551.678 264.888 566.246C276.28 577.315 285.035 582.479 296.867 585.092C300.689 585.94 304.003 586.734 304.215 586.85C304.427 586.973 306.258 586.495 308.275 585.786ZM109.233 577.461C115.531 576.32 116.98 571.148 117.014 549.65L117.048 532.268L103.148 533.594L89.2475 534.912L78.7886 525.393C65.787 513.568 65.1682 507.479 76.1442 499.123C86.7048 491.084 91.5275 481.734 91.5275 469.277C91.5275 460.243 90.3917 457.746 82.823 450.107C71.2961 438.475 56.1925 433.427 34.444 433.928C20.2219 434.259 15.2975 435.516 -1.51813 443.123C-12.2398 447.972 -26.8857 455.518 -34.0646 459.896L-66.5517 479.668C-108.879 505.421 -130.831 516.567 -171.794 533.101L-181.049 536.832L-174.472 539.969C-162.445 545.696 -144.477 545.973 -128.348 540.67C-101.115 531.721 -28.2673 490.066 -21.4274 479.537C-15.8335 470.919 -12.884 473.147 -12.884 485.989C-12.884 510.578 11.7632 532.145 39.9023 532.191C44.0469 532.199 47.4457 533.155 47.4457 534.311C47.4457 535.475 46.2591 536.423 44.8182 536.423C40.6058 536.423 43.9961 552.263 49.7765 559.655C56.4553 568.188 70.9062 576.367 83.0264 578.486C91.9597 580.044 95.8924 579.889 109.233 577.461ZM362.994 578.679C362.994 577.546 360.121 575.026 356.612 573.091C340.05 563.933 328.557 556.164 319.853 548.24C300.817 530.896 301.622 531.282 293.536 535.621C289.629 537.726 286.425 540.994 286.425 542.89C286.425 548.309 312.869 569.853 326.379 575.434C338.881 580.599 362.994 582.734 362.994 578.679ZM-3.44211 572.197C1.10931 570.1 9.7799 564.365 15.823 559.44C33.7405 544.856 34.4355 540.069 19.0099 537.433C10.5427 535.991 9.84771 536.369 -5.34913 550.606C-13.9519 558.669 -23.8684 566.955 -27.3773 569.021C-34.7511 573.368 -35.4377 575.804 -29.6996 577.192C-23.7921 578.625 -12.9179 576.559 -3.44211 572.197ZM206.389 576.297C219.976 573.183 234.062 561.891 238.995 550.144C242.207 542.497 242.411 540.084 240.055 537.502C238.453 535.752 237.529 534.28 238.012 534.242C238.487 534.203 246.861 533.964 256.633 533.717C272.44 533.309 275.5 532.53 284.476 526.634C300.088 516.366 308.419 498.607 304.639 483.668C302.817 476.461 310.47 481.194 313.971 489.442C317.81 498.499 336.084 513.245 374.097 537.965C404.94 558.021 442.521 566.315 458.718 556.634C467.448 551.415 466.719 548.086 456.217 545.226C433.63 539.067 390.319 515.048 342.576 482.188C281.111 439.894 259.701 431.977 224.417 438.468C216.992 439.832 202.753 451.841 199.083 459.835C192.354 474.48 196.727 491.639 210.458 504.504L219.128 512.628L213.916 519.588C203.287 533.787 189.836 538.265 172.165 533.479L165.783 531.752V574.293L173.326 576.267C183.81 579.026 194.456 579.034 206.389 576.305V576.297ZM401.1 573.129C405.033 571.757 406.228 565.968 402.575 565.968C398.083 565.968 351.933 536.385 335.431 522.926C317.759 508.512 313.454 506.639 311.055 512.327C307.47 520.814 309.877 526.364 321.828 537.202C349.687 562.477 385.327 578.633 401.1 573.129ZM-42.9895 564.974C-37.2345 562.299 -24.4193 554.614 -14.5198 547.893L3.47402 535.668L-3.99302 528.661C-8.09523 524.807 -12.2822 521.654 -13.2993 521.654C-14.3079 521.654 -20.6307 526.163 -27.3519 531.675C-42.9217 544.463 -60.0594 555.763 -72.6118 561.529C-84.4184 566.947 -85.088 569.622 -74.9342 570.786C-63.8141 572.073 -54.7452 570.416 -42.9895 564.974ZM-81.3078 553.589C-68.8402 548.17 -17.5032 518.571 -17.5032 516.79C-17.5032 513.645 -25.2923 496.333 -26.7077 496.333C-27.6994 496.333 -41.9639 505.498 -58.3982 516.698C-84.3676 534.396 -116.355 551.2 -124.084 551.2C-129.585 551.2 -126.059 555.424 -119.016 557.274C-105.667 560.781 -95.6063 559.794 -81.3078 553.589ZM163.731 479.521C180.301 461.469 167.868 437.25 142.034 437.25C132.033 437.25 129.481 438.19 122.625 444.426C115.87 450.57 114.742 453.036 114.742 461.631C114.742 470.657 115.708 472.507 124.388 480.015C133.55 487.939 134.635 488.309 145.763 487.337C155.417 486.497 158.595 485.118 163.731 479.521ZM141.644 477.664C140.847 476.492 142.356 474.912 145 474.149C152.12 472.091 158.273 459.303 154.671 454.054C148.891 445.636 154.561 442.129 161.943 449.552C167.41 455.04 166.766 465.562 160.562 471.867C154.841 477.695 143.932 481.032 141.644 477.664Z" fill="#2BD0BF" fill-opacity="0.3"/>
</g>
<defs>
<clipPath id="clip0_14_48">
<rect width="1440" height="1024" fill="white"/>
</clipPath>
</defs>
</svg>
